<svg viewBox="0 0 1024 1024" version="1.1" xmlns="http://www.w3.org/2000/svg" p-id="3003" xmlns:xlink="http://www.w3.org/1999/xlink"><path d="M143.9 182.6H1.1v225.1l54.4 54.4v74.6h158v-74.6l54.4-54.4V182.6zM21.8 1.1v163.7h225.4V1.1H21.8zM107.9 102H70V64h37.9v38z m91.1 0h-37.9V64H199v38zM867.9 932.3v90.6h124.7v-90.6H867.9z m81.4 63.3h-37.9v-19h37.9v19zM837.7 691.7v223.5h185.2V691.7c0-23.5-19.1-42.6-42.6-42.6h-100c-23.6 0.1-42.6 19.1-42.6 42.6z" p-id="3004"></path><path d="M323.3 930.1c-120.5 0-218.6-98-218.6-218.5V553.4h59.6v158.2c0 87.6 71.3 158.9 158.9 158.9 87.6 0 158.9-71.3 158.9-158.9V371.3c0-120.5 98-218.5 218.6-218.5h40.8c120.5 0 218.5 98 218.5 218.5V630h-59.6V371.3c0-87.6-71.3-158.9-158.9-158.9h-40.8c-87.6 0-158.9 71.3-158.9 158.9v340.3c0 120.5-98 218.5-218.5 218.5z" p-id="3005"></path></svg>